<?xml version="1.0" encoding="UTF-8"?>
<svg xmlns="http://www.w3.org/2000/svg"
     xmlns:xlink="http://www.w3.org/1999/xlink"
     version="1.2"
     width="200mm" height="160mm" viewBox="0 0 200 160"
     stroke="none"
     fill="#000000"
     stroke-width="0.3"
     font-size="3.88"
>
<defs>
  <marker id="arrow" markerWidth="15" markerHeight="7" refX="5" refY="3.5" orient="auto" markerUnits="strokeWidth">
    <path d="M0,0 L15,3.5 L0,7 z" stroke="context-stroke" fill="context-stroke"/>
  </marker>
</defs>
<g fill="#000000" fill-opacity="0.000" stroke="#FF00FF" id="img-273365be-1">
  <g transform="translate(72.71,132.7)" stroke-width="0.09">
    <path fill="none" d="M-20.96,13.49 C2.56,5.8 10.14,0.49 8.26,-19.78" class="primitive"/>
  </g>
  <g transform="translate(111,105.05)" stroke-width="0.21">
    <path fill="none" d="M21.09,10.1 C5.96,-4.3 -2.63,-6.43 -24.42,0.63" class="primitive"/>
  </g>
  <g transform="translate(131.69,102.51)" stroke-width="0.34">
    <path fill="none" d="M4.35,11.58 C5.08,-0.01 2.06,-3.72 -11.49,-7.86" class="primitive"/>
  </g>
  <g transform="translate(164.13,117.03)" stroke-width="0.09">
    <path fill="none" d="M-22.84,2.66 C-1.07,6.81 6.12,2.91 17.78,-12.38" class="primitive"/>
  </g>
  <g transform="translate(105.93,121.38)" stroke-width="0.48">
    <path fill="none" d="M-21.21,-9.69 C-6.08,4.7 2.75,6.03 24.54,-1.04" class="primitive"/>
  </g>
  <g transform="translate(101.7,105.77)" stroke-width="0.48">
    <path fill="none" d="M-14.69,2.62 C-0.32,4.24 4.32,1.79 10.69,-8.65" class="primitive"/>
  </g>
  <g transform="translate(118.94,109.16)" stroke-width="0.21">
    <path fill="none" d="M-4.35,-11.58 C-5.08,0.01 -2.06,3.72 11.49,7.86" class="primitive"/>
  </g>
  <g transform="translate(94.3,94.65)" stroke-width="0.79">
    <path fill="none" d="M14.94,-2.25 C0.57,-3.87 -4.57,-2.16 -10.93,8.28" class="primitive"/>
  </g>
  <g transform="translate(126.37,74.3)" stroke-width="0.09">
    <path fill="none" d="M-7.63,15.39 C5.95,3.63 5.73,-2.53 -4.05,-16.49" class="primitive"/>
  </g>
  <g transform="translate(58.93,82.44)" stroke-width="0.09">
    <path fill="none" d="M1.01,-25.65 C-9.98,-2.71 -7.45,6.46 16.42,21.91" class="primitive"/>
  </g>
  <g transform="translate(57.46,28.88)" stroke-width="0.95">
    <path fill="none" d="M5.29,19.14 C8.48,0.45 3.74,-5.69 -17.5,-13.89" class="primitive"/>
  </g>
  <g transform="translate(91.42,62.09)" stroke-width="0.21">
    <path fill="none" d="M-25.03,-6.67 C-5.3,6.21 4.46,5.75 25.87,-5.29" class="primitive"/>
  </g>
  <g transform="translate(39.84,36.45)" stroke-width="0.63">
    <path fill="none" d="M-4.8,-19.34 C-7.99,-0.65 -4.22,5.9 17.01,14.1" class="primitive"/>
  </g>
  <g transform="translate(21.1,20.52)" stroke-width="0.34">
    <path fill="none" d="M10,-6.11 C-1.65,-3.35 -4.02,-0.13 -4.34,9.59" class="primitive"/>
  </g>
  <g transform="translate(34.3,49.04)" stroke-width="0.21">
    <path fill="none" d="M-15.98,-13.18 C-6.44,2.56 0.38,6.5 22.04,4.11" class="primitive"/>
  </g>
  <g transform="translate(30.76,26.45)" stroke-width="0.48">
    <path fill="none" d="M-10.46,5.83 C1.19,3.07 4.47,0.41 4.79,-9.31" class="primitive"/>
  </g>
  <g transform="translate(148.99,51.79)" stroke-width="0.34">
    <path fill="none" d="M22.65,9.22 C5.75,-4.75 -3.29,-6.51 -25.11,2.04" class="primitive"/>
  </g>
  <g transform="translate(170.11,83.98)" stroke-width="0.21">
    <path fill="none" d="M2.27,-19.41 C-7.6,-2.46 -5.89,4.56 11.22,17.31" class="primitive"/>
  </g>
</g>
<g stroke="#FF00FF" id="img-273365be-2">
  <g transform="translate(81.02,113.53)" stroke-width="0.09">
    <path fill="none" d="M-0.45,0.34 L-0.06,-0.61 0.51,0.28 " class="primitive"/>
  </g>
  <g transform="translate(87.3,105.45)" stroke-width="0.21">
    <path fill="none" d="M0.54,0.24 L-0.71,0.23 0.18,-0.47 " class="primitive"/>
  </g>
  <g transform="translate(120.92,94.87)" stroke-width="0.34">
    <path fill="none" d="M0.19,0.47 L-0.72,-0.22 0.53,-0.25 " class="primitive"/>
  </g>
  <g transform="translate(181.51,105.18)" stroke-width="0.09">
    <path fill="none" d="M-0.61,0.06 L0.4,-0.53 0.21,0.46 " class="primitive"/>
  </g>
  <g transform="translate(129.76,120.58)" stroke-width="0.48">
    <path fill="none" d="M-0.54,-0.24 L0.71,-0.23 -0.18,0.47 " class="primitive"/>
  </g>
  <g transform="translate(112.04,97.68)" stroke-width="0.48">
    <path fill="none" d="M-0.6,0.11 L0.34,-0.55 0.26,0.44 " class="primitive"/>
  </g>
  <g transform="translate(129.71,116.79)" stroke-width="0.21">
    <path fill="none" d="M-0.19,-0.47 L0.72,0.22 -0.53,0.25 " class="primitive"/>
  </g>
  <g transform="translate(83.71,102.37)" stroke-width="0.79">
    <path fill="none" d="M0.6,-0.11 L-0.34,0.55 -0.26,-0.44 " class="primitive"/>
  </g>
  <g transform="translate(122.7,58.34)" stroke-width="0.09">
    <path fill="none" d="M-0.23,0.46 L-0.38,-0.54 0.61,0.08 " class="primitive"/>
  </g>
  <g transform="translate(74.76,103.96)" stroke-width="0.09">
    <path fill="none" d="M0,-0.49 L0.6,0.39 -0.6,0.1 " class="primitive"/>
  </g>
  <g transform="translate(40.66,15.26)" stroke-width="0.95">
    <path fill="none" d="M0.14,0.48 L-0.69,-0.27 0.55,-0.21 " class="primitive"/>
  </g>
  <g transform="translate(116.65,57.13)" stroke-width="0.21">
    <path fill="none" d="M-0.58,-0.15 L0.65,-0.33 -0.06,0.49 " class="primitive"/>
  </g>
  <g transform="translate(56.16,50.29)" stroke-width="0.63">
    <path fill="none" d="M-0.14,-0.48 L0.69,0.27 -0.55,0.21 " class="primitive"/>
  </g>
  <g transform="translate(16.79,29.5)" stroke-width="0.34">
    <path fill="none" d="M0.49,-0.3 L-0.02,0.62 -0.47,-0.32 " class="primitive"/>
  </g>
  <g transform="translate(55.57,53.24)" stroke-width="0.21">
    <path fill="none" d="M-0.45,-0.34 L0.76,-0.08 -0.32,0.42 " class="primitive"/>
  </g>
  <g transform="translate(35.53,17.76)" stroke-width="0.48">
    <path fill="none" d="M-0.49,0.3 L0.02,-0.62 0.47,0.32 " class="primitive"/>
  </g>
  <g transform="translate(124.57,53.56)" stroke-width="0.34">
    <path fill="none" d="M0.56,0.21 L-0.69,0.27 0.14,-0.48 " class="primitive"/>
  </g>
  <g transform="translate(180.77,100.87)" stroke-width="0.21">
    <path fill="none" d="M0.04,-0.49 L0.56,0.42 -0.61,0.07 " class="primitive"/>
  </g>
</g>
<g font-size="4" stroke="#000000" stroke-opacity="0.000" fill="#000000" id="img-273365be-3">
</g>
<g stroke-width="0" stroke="#000000" stroke-opacity="0.000" id="img-273365be-4">
  <g transform="translate(50.29,146.67)" fill="#FFA500">
    <circle cx="0" cy="0" r="1.51" class="primitive"/>
  </g>
  <g transform="translate(135.75,118.64)" fill="#FFA500">
    <circle cx="0" cy="0" r="5.47" class="primitive"/>
  </g>
  <g transform="translate(80.48,107.66)" fill="#FFA500">
    <circle cx="0" cy="0" r="6.32" class="primitive"/>
  </g>
  <g transform="translate(114.88,93.03)" fill="#FFA500">
    <circle cx="0" cy="0" r="5.47" class="primitive"/>
  </g>
  <g transform="translate(61.98,52.53)" fill="#800080">
    <circle cx="0" cy="0" r="5.47" class="primitive"/>
  </g>
  <g transform="translate(35.68,13.33)" fill="#800080">
    <circle cx="0" cy="0" r="4.57" class="primitive"/>
  </g>
  <g transform="translate(120.48,55.16)" fill="#800080">
    <circle cx="0" cy="0" r="3.63" class="primitive"/>
  </g>
  <g transform="translate(16.67,33.14)" fill="#40E0D0">
    <circle cx="0" cy="0" r="3.63" class="primitive"/>
  </g>
  <g transform="translate(183.33,102.78)" fill="#40E0D0">
    <circle cx="0" cy="0" r="2.63" class="primitive"/>
  </g>
  <g transform="translate(173.54,62.58)" fill="#40E0D0">
    <circle cx="0" cy="0" r="2.63" class="primitive"/>
  </g>
</g>
<g stroke="#000000" stroke-opacity="0.000" id="img-273365be-5">
  <g transform="translate(50.51,146.49)" font-size="0.95">
    <g class="primitive">
      <text text-anchor="middle" dy="0.35em">a</text>
    </g>
  </g>
  <g transform="translate(136.56,117.99)" font-size="3.46">
    <g class="primitive">
      <text text-anchor="middle" dy="0.35em">b</text>
    </g>
  </g>
  <g transform="translate(81.41,106.91)" font-size="4">
    <g class="primitive">
      <text text-anchor="middle" dy="0.35em">c</text>
    </g>
  </g>
  <g transform="translate(115.68,92.38)" font-size="3.46">
    <g class="primitive">
      <text text-anchor="middle" dy="0.35em">d</text>
    </g>
  </g>
  <g transform="translate(62.78,51.89)" font-size="3.46">
    <g class="primitive">
      <text text-anchor="middle" dy="0.35em">e</text>
    </g>
  </g>
  <g transform="translate(36.35,12.79)" font-size="2.89">
    <g class="primitive">
      <text text-anchor="middle" dy="0.35em">f</text>
    </g>
  </g>
  <g transform="translate(121.01,54.73)" font-size="2.3">
    <g class="primitive">
      <text text-anchor="middle" dy="0.35em">g</text>
    </g>
  </g>
  <g transform="translate(17.2,32.71)" font-size="2.3">
    <g class="primitive">
      <text text-anchor="middle" dy="0.35em">h</text>
    </g>
  </g>
  <g transform="translate(183.72,102.47)" font-size="1.66">
    <g class="primitive">
      <text text-anchor="middle" dy="0.35em">i</text>
    </g>
  </g>
  <g transform="translate(173.93,62.27)" font-size="1.66">
    <g class="primitive">
      <text text-anchor="middle" dy="0.35em">j</text>
    </g>
  </g>
</g>
</svg>
