<?xml version="1.0" encoding="UTF-8"?>
<svg xmlns="http://www.w3.org/2000/svg"
     xmlns:xlink="http://www.w3.org/1999/xlink"
     version="1.2"
     width="200mm" height="160mm" viewBox="0 0 200 160"
     stroke="none"
     fill="#000000"
     stroke-width="0.3"
     font-size="3.88"
>
<defs>
  <marker id="arrow" markerWidth="15" markerHeight="7" refX="5" refY="3.5" orient="auto" markerUnits="strokeWidth">
    <path d="M0,0 L15,3.5 L0,7 z" stroke="context-stroke" fill="context-stroke"/>
  </marker>
</defs>
<g fill="#000000" fill-opacity="0.000" stroke="#008000" id="img-360b8945-1">
  <g transform="translate(160.34,99.38)" stroke-width="0.09">
    <path fill="none" d="M22.02,12.42 C6.27,-3.58 -2.2,-7.94 -26.08,-0.9" class="primitive"/>
  </g>
  <g transform="translate(116.25,123.27)" stroke-width="0.21">
    <path fill="none" d="M-21.44,10.17 C1.91,6.33 8.44,1.23 11.09,-17.73" class="primitive"/>
  </g>
  <g transform="translate(96.08,120.68)" stroke-width="0.34">
    <path fill="none" d="M-3.54,9.97 C3.67,1.87 3.63,-1.92 -3.76,-9.92" class="primitive"/>
  </g>
  <g transform="translate(59.07,133.45)" stroke-width="0.09">
    <path fill="none" d="M24.8,-0.63 C2.17,-7.12 -6.13,-3.73 -20.84,11.49" class="primitive"/>
  </g>
  <g transform="translate(100.57,111.82)" stroke-width="0.48">
    <path fill="none" d="M21.05,-10.45 C-2.3,-6.61 -8.05,-0.95 -10.7,18.01" class="primitive"/>
  </g>
  <g transform="translate(106.45,97.48)" stroke-width="0.48">
    <path fill="none" d="M15.6,0.7 C1.81,-4.15 -3.69,-2.77 -13.72,6.22" class="primitive"/>
  </g>
  <g transform="translate(82.08,120.77)" stroke-width="0.21">
    <path fill="none" d="M3.54,-9.97 C-3.67,-1.87 -3.63,1.92 3.76,9.92" class="primitive"/>
  </g>
  <g transform="translate(109.85,110.04)" stroke-width="0.79">
    <path fill="none" d="M-15.71,-1.11 C-1.93,3.74 3.8,3.18 13.83,-5.81" class="primitive"/>
  </g>
  <g transform="translate(77.25,89.84)" stroke-width="0.09">
    <path fill="none" d="M10.5,12.8 C6.64,-1.68 0.64,-4.79 -17.78,-6.33" class="primitive"/>
  </g>
  <g transform="translate(105.31,80.18)" stroke-width="0.09">
    <path fill="none" d="M-2.7,-22.14 C-8.92,-1.45 -5.53,6.23 17.15,17.36" class="primitive"/>
  </g>
  <g transform="translate(109.72,32.18)" stroke-width="0.95">
    <path fill="none" d="M-3.07,17.42 C6.98,2.51 5.36,-3.84 -9.27,-16.09" class="primitive"/>
  </g>
  <g transform="translate(72.77,62.06)" stroke-width="0.21">
    <path fill="none" d="M25.49,-8.32 C-1.07,-7.78 -8.43,-2.13 -15.99,18.24" class="primitive"/>
  </g>
  <g transform="translate(91.29,34.17)" stroke-width="0.63">
    <path fill="none" d="M3.61,-17.48 C-6.44,-2.57 -5.9,3.9 8.73,16.15" class="primitive"/>
  </g>
  <g transform="translate(112.25,20.55)" stroke-width="0.34">
    <path fill="none" d="M-11.79,-4.47 C-3.07,2.8 1.76,3.03 13.1,-1.36" class="primitive"/>
  </g>
  <g transform="translate(108.71,31.64)" stroke-width="0.21">
    <path fill="none" d="M16.61,-12.49 C-3.08,-5.16 -8.08,0.2 -5.45,17.45" class="primitive"/>
  </g>
  <g transform="translate(114.45,10.77)" stroke-width="0.48">
    <path fill="none" d="M11.68,4.92 C2.97,-2.35 -1.66,-3.48 -12.99,0.91" class="primitive"/>
  </g>
  <g transform="translate(42.37,104.15)" stroke-width="0.34">
    <path fill="none" d="M-23,9.67 C1.55,6.65 8.73,1.65 12.72,-17.97" class="primitive"/>
  </g>
  <g transform="translate(19.78,133.08)" stroke-width="0.21">
    <path fill="none" d="M-3.58,-16.78 C-7.1,-0.69 -3.68,4.91 14.36,12.56" class="primitive"/>
  </g>
</g>
<g stroke="#008000" id="img-360b8945-2">
  <g transform="translate(134.98,98.27)" stroke-width="0.09">
    <path fill="none" d="M0.53,0.25 L-0.72,0.21 0.2,-0.47 " class="primitive"/>
  </g>
  <g transform="translate(127.26,106.15)" stroke-width="0.21">
    <path fill="none" d="M-0.52,0.26 L0.09,-0.61 0.43,0.35 " class="primitive"/>
  </g>
  <g transform="translate(92.78,111.25)" stroke-width="0.34">
    <path fill="none" d="M-0.16,0.48 L-0.46,-0.5 0.61,0.02 " class="primitive"/>
  </g>
  <g transform="translate(38.7,144.45)" stroke-width="0.09">
    <path fill="none" d="M0.61,-0.01 L-0.47,0.49 -0.14,-0.48 " class="primitive"/>
  </g>
  <g transform="translate(89.95,129.21)" stroke-width="0.48">
    <path fill="none" d="M0.52,-0.26 L-0.09,0.61 -0.43,-0.35 " class="primitive"/>
  </g>
  <g transform="translate(93.24,103.24)" stroke-width="0.48">
    <path fill="none" d="M0.61,0.03 L-0.51,0.46 -0.1,-0.48 " class="primitive"/>
  </g>
  <g transform="translate(85.39,130.2)" stroke-width="0.21">
    <path fill="none" d="M0.16,-0.48 L0.46,0.5 -0.61,-0.02 " class="primitive"/>
  </g>
  <g transform="translate(123.18,104.69)" stroke-width="0.79">
    <path fill="none" d="M-0.61,-0.03 L0.51,-0.46 0.1,0.48 " class="primitive"/>
  </g>
  <g transform="translate(60.24,83.57)" stroke-width="0.09">
    <path fill="none" d="M0.33,0.41 L-0.77,-0.06 0.43,-0.35 " class="primitive"/>
  </g>
  <g transform="translate(121.8,97.22)" stroke-width="0.09">
    <path fill="none" d="M-0.08,-0.49 L0.66,0.32 -0.58,0.17 " class="primitive"/>
  </g>
  <g transform="translate(100.98,16.53)" stroke-width="0.95">
    <path fill="none" d="M-0.08,0.49 L-0.53,-0.45 0.61,-0.04 " class="primitive"/>
  </g>
  <g transform="translate(57,79.7)" stroke-width="0.21">
    <path fill="none" d="M0.57,-0.19 L-0.22,0.59 -0.35,-0.4 " class="primitive"/>
  </g>
  <g transform="translate(99.49,49.88)" stroke-width="0.63">
    <path fill="none" d="M0.08,-0.49 L0.53,0.45 -0.61,0.04 " class="primitive"/>
  </g>
  <g transform="translate(124.65,19.46)" stroke-width="0.34">
    <path fill="none" d="M-0.55,-0.21 L0.69,-0.27 -0.14,0.48 " class="primitive"/>
  </g>
  <g transform="translate(103.17,48.48)" stroke-width="0.21">
    <path fill="none" d="M0.43,-0.35 L0.09,0.61 -0.52,-0.26 " class="primitive"/>
  </g>
  <g transform="translate(102.14,11.41)" stroke-width="0.48">
    <path fill="none" d="M0.55,0.21 L-0.69,0.27 0.14,-0.48 " class="primitive"/>
  </g>
  <g transform="translate(54.97,86.79)" stroke-width="0.34">
    <path fill="none" d="M-0.53,0.24 L0.12,-0.61 0.41,0.37 " class="primitive"/>
  </g>
  <g transform="translate(33.46,145.35)" stroke-width="0.21">
    <path fill="none" d="M-0.12,-0.48 L0.68,0.29 -0.56,0.19 " class="primitive"/>
  </g>
</g>
<g font-size="4" stroke="#000000" stroke-opacity="0.000" fill="#000000" id="img-360b8945-3">
</g>
<g stroke-width="0" stroke="#000000" stroke-opacity="0.000" id="img-360b8945-4">
  <g transform="translate(183.33,112.78)" fill="#008000">
    <circle cx="0" cy="0" r="1.51" class="primitive"/>
  </g>
  <g transform="translate(89.23,134.35)" fill="#008000">
    <circle cx="0" cy="0" r="5.47" class="primitive"/>
  </g>
  <g transform="translate(128.08,100.3)" fill="#008000">
    <circle cx="0" cy="0" r="6.32" class="primitive"/>
  </g>
  <g transform="translate(88.93,107.1)" fill="#008000">
    <circle cx="0" cy="0" r="5.47" class="primitive"/>
  </g>
  <g transform="translate(103.95,53.62)" fill="#EE82EE">
    <circle cx="0" cy="0" r="5.47" class="primitive"/>
  </g>
  <g transform="translate(97.16,13.33)" fill="#EE82EE">
    <circle cx="0" cy="0" r="4.57" class="primitive"/>
  </g>
  <g transform="translate(55.71,83.2)" fill="#FFD700">
    <circle cx="0" cy="0" r="3.63" class="primitive"/>
  </g>
  <g transform="translate(128.75,17.88)" fill="#EE82EE">
    <circle cx="0" cy="0" r="3.63" class="primitive"/>
  </g>
  <g transform="translate(36.56,146.67)" fill="#FFD700">
    <circle cx="0" cy="0" r="2.63" class="primitive"/>
  </g>
  <g transform="translate(16.67,114.15)" fill="#FFD700">
    <circle cx="0" cy="0" r="2.63" class="primitive"/>
  </g>
</g>
<g stroke="#000000" stroke-opacity="0.000" id="img-360b8945-5">
  <g transform="translate(183.56,112.6)" font-size="0.95">
    <g class="primitive">
      <text text-anchor="middle" dy="0.35em">a</text>
    </g>
  </g>
  <g transform="translate(90.04,133.71)" font-size="3.46">
    <g class="primitive">
      <text text-anchor="middle" dy="0.35em">b</text>
    </g>
  </g>
  <g transform="translate(129.01,99.56)" font-size="4">
    <g class="primitive">
      <text text-anchor="middle" dy="0.35em">c</text>
    </g>
  </g>
  <g transform="translate(89.74,106.45)" font-size="3.46">
    <g class="primitive">
      <text text-anchor="middle" dy="0.35em">d</text>
    </g>
  </g>
  <g transform="translate(104.76,52.97)" font-size="3.46">
    <g class="primitive">
      <text text-anchor="middle" dy="0.35em">e</text>
    </g>
  </g>
  <g transform="translate(97.84,12.79)" font-size="2.89">
    <g class="primitive">
      <text text-anchor="middle" dy="0.35em">f</text>
    </g>
  </g>
  <g transform="translate(56.24,82.77)" font-size="2.3">
    <g class="primitive">
      <text text-anchor="middle" dy="0.35em">g</text>
    </g>
  </g>
  <g transform="translate(129.28,17.45)" font-size="2.3">
    <g class="primitive">
      <text text-anchor="middle" dy="0.35em">h</text>
    </g>
  </g>
  <g transform="translate(36.95,146.36)" font-size="1.66">
    <g class="primitive">
      <text text-anchor="middle" dy="0.35em">i</text>
    </g>
  </g>
  <g transform="translate(17.05,113.84)" font-size="1.66">
    <g class="primitive">
      <text text-anchor="middle" dy="0.35em">j</text>
    </g>
  </g>
</g>
</svg>
